<svg width="42" height="40" viewBox="0 0 42 40" fill="none" xmlns="http://www.w3.org/2000/svg">
<path d="M24.8713 34.1213C25.4703 33.7755 25.9058 33.203 26.0818 32.5297C26.2579 31.8565 26.1602 31.1377 25.8102 30.5314L24.4904 28.2456C24.1404 27.6393 23.5668 27.1953 22.8957 27.0112C22.2246 26.827 21.5111 26.9179 20.9121 27.2637C16.3949 29.8717 13.7554 25.3 12.4356 23.0141C11.1159 20.7283 8.47642 16.1566 12.9936 13.5486C13.5926 13.2027 14.0281 12.6302 14.2041 11.957C14.3802 11.2837 14.2825 10.5649 13.9325 9.9587L12.6127 7.67284C12.2627 7.06659 11.6891 6.62256 11.018 6.43842C10.3469 6.25429 9.63341 6.34513 9.03439 6.69098C3.3879 9.95098 1.31974 14.1928 7.91845 25.6221C14.5172 37.0515 19.2248 37.3813 24.8713 34.1213Z" stroke="#23AB7D" stroke-width="2" stroke-linecap="round" stroke-linejoin="round"/>
<path d="M36.8916 24.6819C38.0914 20.0846 37.4229 15.1771 35.033 11.0378C32.6432 6.89848 28.7275 3.86584 24.1462 2.60618M29.9765 22.7844C30.3339 21.4191 30.4197 19.9934 30.2289 18.589C30.0381 17.1845 29.5745 15.8288 28.8646 14.5992C28.1547 13.3696 27.2124 12.2902 26.0915 11.4227C24.9706 10.5553 23.693 9.91675 22.3319 9.54359M23.0985 20.8732C23.3384 19.9532 23.2045 18.9713 22.7263 18.1431C22.2482 17.3148 21.4647 16.708 20.5481 16.4557" stroke="#23AB7D" stroke-width="2" stroke-linecap="round" stroke-linejoin="round"/>
</svg>
